<?xml version="1.0" encoding="UTF-8"?>
<svg id="Layer_1" data-name="Layer 1" xmlns="http://www.w3.org/2000/svg" viewBox="0 0 640.63 798.03">
  <defs>
    <style>
      .cls-1 {
        fill: #d1d3d4;
      }
    </style>
  </defs>
  <path class="cls-1" d="M320.32,798.03l-8.09-3.42c-166.42-70.28-242.36-163.71-276.76-229.7C-.87,495.21-.21,440.44.05,433.26V106.19l21.03.23c169.6,1.87,284.61-94,285.75-94.97l13.5-11.44,13.49,11.46c1.12.95,116.18,96.72,285.73,94.95l21.03-.23v327.07c.26,7.18.92,61.95-35.41,131.65-34.4,66-110.34,159.42-276.76,229.7l-8.09,3.42ZM41.66,147.8v286.46l-.03.58c-.02.39-1.85,49.69,32.04,113.32,44.18,82.96,129.36,153.6,246.65,204.64,286-124.39,278.79-316.03,278.68-317.97l-.03-1.15V147.8c-141.81-4.46-243.33-68.47-278.66-94.22-35.32,25.75-136.86,89.75-278.65,94.22Z"/>
  <path class="cls-1" d="M539.96,220.17l-75.61,37.96c4.26,7.69,6.7,16.53,6.7,25.95,0,29.61-24,53.62-53.62,53.62s-53.62-24-53.62-53.62c0-23.28,14.84-43.09,35.58-50.5-51.21-27.3-79.08-110.26-79.08-110.26,0,0-27.87,82.96-79.08,110.26,20.74,7.41,35.58,27.22,35.58,50.5,0,29.61-24,53.62-53.62,53.62s-53.62-24-53.62-53.62c0-9.42,2.43-18.26,6.7-25.95l-75.61-37.96s48.67,121.18,45.26,205.37h348.77c-3.41-84.19,45.26-205.37,45.26-205.37Z"/>
  <path class="cls-1" d="M417.49,516.54c-9.7-23.11-22.66-46.13-39.95-65.7h-46.27v65.7h86.22Z"/>
  <path class="cls-1" d="M331.27,608.77h111.36c-2.8-18.54-7.86-43.76-16.87-70.32h-94.49v70.32Z"/>
  <path class="cls-1" d="M331.27,630.67v74.83c47.43-22.43,85.18-47.31,114.43-70.53-.09-1.19-.21-2.63-.37-4.3h-114.06Z"/>
  <path class="cls-1" d="M309.37,516.54v-65.7h-46.27c-17.29,19.57-30.26,42.59-39.95,65.7h86.22Z"/>
  <path class="cls-1" d="M234.94,450.85h-68.57s-34.43,30.72-48.64,65.7h81.64c8.72-22.34,20.27-45.09,35.58-65.7Z"/>
  <path class="cls-1" d="M191.63,538.44h-79.62c-.34,3.43-.43,6.84-.14,10.22,0,0,15.89,25.8,52.62,60.1h11.26c2.56-18.26,7.28-43.32,15.89-70.32Z"/>
  <path class="cls-1" d="M195.3,630.67c-.16,1.67-.27,3.1-.37,4.3,29.25,23.22,67,48.1,114.43,70.53v-74.83h-114.06Z"/>
  <path class="cls-1" d="M522.91,516.54c-14.22-34.98-48.64-65.7-48.64-65.7h-68.57c15.3,20.61,26.86,43.36,35.58,65.7h81.64Z"/>
  <path class="cls-1" d="M464.89,608.77h11.26c36.73-34.31,52.62-60.1,52.62-60.1.29-3.38.2-6.79-.14-10.22h-79.62c8.61,27,13.33,52.07,15.89,70.32Z"/>
  <path class="cls-1" d="M214.87,538.44c-9.01,26.56-14.07,51.78-16.87,70.32h111.36v-70.32h-94.49Z"/>
</svg>